{"glyphs":{"0":{"ha":888,"x_min":0,"x_max":0,"o":"m 646 928 b 446 982 588 966 514 984 b 247 928 378 984 305 966 b 119 170 22 780 5 387 b 404 -18 174 65 284 -5 b 446 -19 416 -19 434 -20 b 489 -18 459 -20 476 -19 b 764 175 609 -5 709 69 b 646 928 878 391 871 780 z m 626 398 b 445 177 613 317 562 177 b 273 345 356 177 293 254 b 262 403 268 364 265 384 b 446 783 244 523 267 783 b 626 398 627 783 645 528 z "},"1":{"ha":346,"x_min":0,"x_max":0,"o":"m 276 1 l 276 967 l 69 967 l 69 1 z "},"2":{"ha":717,"x_min":0,"x_max":0,"o":"m 54 32 b 33 0 48 23 44 16 l 669 -1 l 635 166 l 370 166 l 581 493 b 660 718 612 542 660 610 b 360 987 660 890 526 987 b 43 669 173 987 43 861 l 255 669 b 355 796 255 744 291 796 b 451 697 422 796 451 750 b 393 562 451 653 423 609 b 54 32 393 562 123 146 z "},"3":{"ha":760,"x_min":0,"x_max":0,"o":"m 550 505 b 685 704 607 527 685 590 b 376 988 685 853 570 988 b 51 690 112 988 51 781 l 257 691 b 371 804 257 757 305 804 b 477 690 439 804 477 748 b 365 579 477 632 448 579 l 365 579 l 269 579 l 269 402 l 368 403 b 494 279 454 403 494 349 b 376 152 494 200 445 152 b 246 295 310 152 246 197 l 46 295 b 378 -20 46 81 190 -20 b 706 276 551 -20 706 67 b 550 505 706 420 599 494 z "},"4":{"ha":724,"x_min":0,"x_max":0,"o":"m 447 967 l 447 0 l 654 0 l 654 967 z m 248 765 l 248 967 l 42 967 l 42 763 b 447 350 42 617 42 350 l 447 531 b 248 765 244 531 248 655 z "},"5":{"ha":746,"x_min":0,"x_max":0,"o":"m 342 637 l 304 637 l 304 786 l 586 786 l 586 967 l 97 967 l 97 450 l 326 450 b 499 301 440 450 499 397 b 378 167 499 222 452 167 b 252 311 307 167 252 212 l 50 311 b 378 -20 50 35 259 -20 b 702 318 526 -20 702 75 b 342 637 702 553 513 637 z "},"6":{"ha":725,"x_min":0,"x_max":0,"o":"m 333 569 l 518 968 l 286 968 b 85 485 286 968 111 539 b 357 -20 -44 207 124 -20 b 690 288 564 -20 690 129 b 333 569 690 513 486 619 z m 363 168 b 245 290 291 168 245 226 b 363 413 245 365 304 413 b 486 290 455 413 486 341 b 363 168 486 226 436 168 z "},"7":{"ha":710,"x_min":0,"x_max":0,"o":"m 70 967 l 70 785 l 70 785 b 70 780 70 785 70 780 l 392 780 l 28 0 l 250 0 l 697 967 z "},"8":{"ha":778,"x_min":0,"x_max":0,"o":"m 570 504 b 712 712 570 504 712 560 b 389 988 712 888 569 988 b 66 712 219 988 66 898 b 206 504 66 560 206 504 b 53 272 206 504 53 431 b 389 -20 53 120 180 -20 b 724 268 592 -20 724 108 b 570 504 724 445 570 504 z m 389 802 b 505 693 464 802 505 754 b 389 584 505 631 464 584 b 272 692 313 584 272 635 b 389 802 272 746 313 802 z m 389 168 b 259 292 310 168 259 229 b 389 420 259 363 310 420 b 518 294 469 420 518 364 b 389 168 518 219 467 168 z "},"9":{"ha":725,"x_min":0,"x_max":0,"o":"m 368 988 b 35 679 160 988 35 839 b 391 399 35 455 238 349 l 206 0 l 438 0 b 639 483 438 0 614 429 b 368 988 768 760 601 988 z m 361 555 b 238 678 269 555 238 627 b 361 800 238 742 289 800 b 479 678 433 800 479 742 b 361 555 479 603 420 555 z "},"\u0000":{"ha":0,"x_min":0,"x_max":0,"o":""},"\n":{"ha":0,"x_min":0,"x_max":0,"o":""},"\r":{"ha":0,"x_min":0,"x_max":0,"o":""}," ":{"ha":401,"x_min":0,"x_max":0,"o":""},"!":{"ha":322,"x_min":0,"x_max":0,"o":"m 257 0 l 257 196 l 65 196 l 65 0 z m 257 309 l 257 967 l 65 967 l 65 309 z "},"#":{"ha":910,"x_min":0,"x_max":0,"o":"m 867 570 l 867 716 l 726 716 l 759 967 l 589 967 l 556 716 l 412 716 l 443 967 l 275 967 l 242 716 l 80 716 l 80 570 l 223 570 l 203 418 l 42 418 l 42 271 l 185 271 l 149 1 l 319 1 l 354 271 l 498 271 l 463 1 l 634 1 l 668 271 l 833 271 l 833 418 l 687 418 l 707 570 z m 517 418 l 373 418 l 393 570 l 537 570 z "},"$":{"ha":657,"x_min":0,"x_max":0,"o":"m 608 253 b 276 717 608 518 276 607 b 349 786 276 744 301 786 b 434 712 396 786 424 736 l 603 788 b 407 980 575 866 510 955 l 420 1091 l 268 1091 l 281 980 b 73 732 173 955 73 869 b 406 259 73 494 406 409 b 324 186 406 227 378 186 b 225 298 234 186 225 298 l 40 229 b 281 -7 40 229 91 21 l 268 -114 l 420 -114 l 407 1 b 608 253 524 32 608 130 z "},"%":{"ha":1194,"x_min":0,"x_max":0,"o":"m 522 751 b 274 987 522 887 414 987 b 28 751 135 987 28 887 b 273 514 28 613 135 514 b 522 751 425 514 522 613 z m 178 751 b 275 853 178 805 219 853 b 372 751 330 853 372 805 b 275 647 372 696 330 647 b 178 751 219 647 178 696 z m 917 452 b 671 217 778 452 671 353 b 916 -21 671 79 778 -21 b 1165 216 1068 -21 1165 79 b 917 452 1165 353 1057 452 z m 918 113 b 821 217 862 113 821 161 b 918 318 821 270 862 318 b 1015 216 973 318 1015 270 b 918 113 1015 161 973 113 z m 819 966 l 257 0 l 383 0 l 943 966 z "},"&":{"ha":832,"x_min":0,"x_max":0,"o":"m 520 554 l 520 305 l 520 305 l 520 313 b 381 167 520 245 477 167 b 244 299 269 167 244 260 b 372 431 244 393 317 431 l 444 431 l 444 618 l 404 618 b 326 644 372 618 346 627 b 296 711 306 662 296 685 b 321 777 296 737 304 759 b 388 803 337 794 360 803 b 462 775 416 803 440 793 l 534 946 b 373 988 492 974 439 988 b 134 858 233 988 156 898 b 100 729 111 819 100 776 b 121 625 100 692 107 657 b 183 540 135 593 156 564 b 83 431 140 511 106 474 b 47 289 59 387 47 340 b 386 -19 47 167 136 -19 b 716 312 610 -19 716 177 l 716 367 l 801 367 l 801 554 z "},"'":{"ha":283,"x_min":0,"x_max":0,"o":"m 35 949 l 84 590 l 198 590 l 248 949 z "},"‘":{"ha":283,"x_min":0,"x_max":0,"o":"m 35 949 l 84 590 l 198 590 l 248 949 z "},"’":{"ha":283,"x_min":0,"x_max":0,"o":"m 35 949 l 84 590 l 198 590 l 248 949 z "},"(":{"ha":346,"x_min":0,"x_max":0,"o":"m 244 1172 b 163 1031 213 1130 187 1082 b 106 866 140 979 121 924 b 71 687 90 808 79 748 b 58 502 62 625 58 563 b 106 116 58 363 74 234 b 244 -192 138 -2 184 -104 l 359 -112 b 299 8 337 -78 317 -38 b 253 156 281 53 266 103 b 223 322 240 209 230 264 b 212 493 216 379 212 437 b 359 1093 212 725 261 925 z "},")":{"ha":347,"x_min":0,"x_max":0,"o":"m 103 -192 b 183 -50 133 -149 160 -102 b 241 115 206 2 226 57 b 276 294 256 173 268 233 b 288 479 284 356 288 417 b 240 865 288 618 272 747 b 103 1172 208 983 162 1085 l -12 1093 b 48 973 10 1059 30 1019 b 94 825 66 927 81 878 b 124 659 107 772 117 717 b 135 488 131 601 135 544 b -13 -112 135 255 86 55 z "},"*":{"ha":626,"x_min":0,"x_max":0,"o":"m 590 428 l 408 428 l 536 556 l 481 612 l 352 483 l 352 665 l 273 665 l 273 483 l 145 612 l 89 556 l 218 428 l 36 428 l 36 349 l 218 349 l 89 220 l 145 165 l 273 293 l 273 111 l 352 111 l 352 293 l 481 165 l 536 220 l 408 349 l 590 349 z "},"+":{"ha":744,"x_min":0,"x_max":0,"o":"m 445 552 l 445 823 l 301 823 l 301 552 l 29 552 l 29 407 l 301 407 l 301 136 l 445 136 l 445 407 l 715 407 l 715 552 z "},",":{"ha":333,"x_min":0,"x_max":0,"o":"m 117 173 l -92 -208 l 46 -208 l 313 173 z "},"-":{"ha":417,"x_min":0,"x_max":0,"o":"m 388 376 l 388 539 l 28 539 l 28 376 z "},".":{"ha":253,"x_min":0,"x_max":0,"o":"m 222 0 l 222 196 l 31 196 l 31 0 z "},"/":{"ha":821,"x_min":0,"x_max":0,"o":"m 596 1286 l 69 0 l 223 0 l 751 1286 z "},":":{"ha":281,"x_min":0,"x_max":0,"o":"m 236 0 l 236 196 l 44 196 l 44 0 z m 236 357 l 236 553 l 44 553 l 44 357 z "},";":{"ha":364,"x_min":0,"x_max":0,"o":"m 327 326 l 327 523 l 135 523 l 135 326 z m -94 -215 l 43 -215 l 310 166 l 114 166 z "},"<":{"ha":414,"x_min":0,"x_max":0,"o":"m 141 542 b 141 570 133 550 133 562 l 374 803 b 374 830 381 810 381 823 l 345 858 b 318 858 338 866 325 866 l 29 570 b 29 542 22 562 22 550 l 318 254 b 345 254 325 246 338 246 l 374 282 b 374 310 381 290 381 302 z "},"=":{"ha":761,"x_min":0,"x_max":0,"o":"m 723 153 l 723 297 l 38 297 l 38 153 z m 723 409 l 723 555 l 38 555 l 38 409 z "},">":{"ha":414,"x_min":0,"x_max":0,"o":"m 383 571 l 95 859 b 67 859 87 867 75 867 l 39 831 b 39 803 31 823 31 811 l 272 571 b 272 543 279 563 279 551 l 39 310 b 39 283 31 303 31 290 l 67 255 b 95 255 75 247 87 247 l 383 543 b 383 571 391 551 391 563 z "},"?":{"ha":613,"x_min":0,"x_max":0,"o":"m 301 966 l 60 967 l 60 781 l 251 781 b 369 679 315 781 369 748 b 248 579 369 633 344 579 l 65 579 l 65 309 l 256 309 l 256 432 l 286 432 b 576 697 440 432 576 516 b 301 966 576 900 415 966 z m 256 0 l 256 197 l 65 197 l 65 0 z "},"@":{"ha":1101,"x_min":0,"x_max":0,"o":"m 1020 730 b 918 870 995 784 961 831 b 763 964 874 910 822 942 b 572 999 704 987 640 999 b 364 959 497 999 427 985 b 197 851 300 933 244 897 b 85 690 150 806 112 751 b 44 489 58 629 44 561 b 83 293 44 420 57 354 b 190 130 108 231 144 176 b 360 20 237 84 294 47 b 584 -21 426 -7 502 -21 b 768 3 650 -21 712 -13 b 927 72 823 18 876 41 l 876 171 b 812 134 853 156 831 143 b 745 109 790 123 768 115 b 672 97 722 103 698 99 b 583 93 646 95 616 93 b 419 120 526 93 470 102 b 284 197 368 138 323 164 b 193 322 246 231 215 273 b 159 489 170 371 159 427 b 190 645 159 544 169 597 b 276 771 211 694 240 736 b 408 854 313 805 357 833 b 573 884 458 874 514 884 b 718 861 624 884 673 876 b 836 794 763 845 802 823 b 914 690 869 766 895 731 b 943 555 933 650 943 604 b 919 418 943 509 935 463 b 810 324 891 343 854 310 b 776 437 765 338 771 395 b 778 463 777 446 778 456 b 780 493 778 473 779 483 b 781 507 780 497 780 502 l 795 717 l 655 717 l 647 616 b 638 634 647 616 638 632 b 485 734 637 635 588 734 b 277 490 384 734 277 648 b 484 246 277 392 332 246 b 629 348 592 246 628 344 b 635 361 630 351 635 363 b 759 214 635 259 699 223 b 896 236 804 207 853 215 b 982 307 930 253 959 277 b 1038 417 1006 338 1025 375 b 1058 559 1051 460 1058 507 b 1020 730 1058 619 1045 677 z m 609 420 b 534 386 596 405 572 386 b 429 490 474 386 429 431 b 534 594 429 548 475 594 b 635 490 594 594 635 540 b 609 420 635 464 625 439 z "},"A":{"ha":751,"x_min":0,"x_max":0,"o":"m 525 0 l 746 0 l 490 967 l 260 967 l 4 0 l 220 0 l 256 173 l 490 173 z m 293 354 l 375 752 l 454 354 z "},"À":{"ha":751,"x_min":0,"x_max":0,"o":"m 525 0 l 746 0 l 490 967 l 260 967 l 4 0 l 220 0 l 256 173 l 490 173 z m 293 354 l 375 752 l 454 354 z "},"Á":{"ha":751,"x_min":0,"x_max":0,"o":"m 525 0 l 746 0 l 490 967 l 260 967 l 4 0 l 220 0 l 256 173 l 490 173 z m 293 354 l 375 752 l 454 354 z "},"Â":{"ha":751,"x_min":0,"x_max":0,"o":"m 525 0 l 746 0 l 490 967 l 260 967 l 4 0 l 220 0 l 256 173 l 490 173 z m 293 354 l 375 752 l 454 354 z "},"Ã":{"ha":751,"x_min":0,"x_max":0,"o":"m 525 0 l 746 0 l 490 967 l 260 967 l 4 0 l 220 0 l 256 173 l 490 173 z m 293 354 l 375 752 l 454 354 z "},"Ä":{"ha":751,"x_min":0,"x_max":0,"o":"m 525 0 l 746 0 l 490 967 l 260 967 l 4 0 l 220 0 l 256 173 l 490 173 z m 293 354 l 375 752 l 454 354 z "},"Å":{"ha":751,"x_min":0,"x_max":0,"o":"m 525 0 l 746 0 l 490 967 l 260 967 l 4 0 l 220 0 l 256 173 l 490 173 z m 293 354 l 375 752 l 454 354 z "},"B":{"ha":714,"x_min":0,"x_max":0,"o":"m 483 509 b 646 713 535 509 646 574 b 337 967 646 892 493 967 l 69 967 l 69 0 l 368 0 b 675 280 547 0 675 98 b 483 509 675 457 513 509 z m 276 781 l 320 781 b 439 680 366 781 439 770 b 319 578 439 590 373 578 l 276 578 z m 469 296 b 346 186 469 227 416 186 l 276 186 l 276 411 l 333 411 b 469 296 400 411 469 386 z "},"C":{"ha":829,"x_min":0,"x_max":0,"o":"m 426 187 b 242 475 319 187 242 278 b 242 484 242 478 242 481 b 242 494 242 487 242 491 b 426 781 242 691 319 781 b 587 631 578 781 587 631 l 798 631 b 425 988 798 721 715 988 b 36 490 138 988 36 713 b 36 484 36 488 36 486 b 36 478 36 482 36 480 b 425 -19 36 255 138 -19 b 798 338 715 -19 798 247 l 587 338 b 426 187 587 338 578 187 z "},"Ç":{"ha":829,"x_min":0,"x_max":0,"o":"m 426 187 b 242 475 319 187 242 278 b 242 484 242 478 242 481 b 242 494 242 487 242 491 b 426 781 242 691 319 781 b 587 631 578 781 587 631 l 798 631 b 425 988 798 721 715 988 b 36 490 138 988 36 713 b 36 484 36 488 36 486 b 36 478 36 482 36 480 b 425 -19 36 255 138 -19 b 798 338 715 -19 798 247 l 587 338 b 426 187 587 338 578 187 z "},"D":{"ha":785,"x_min":0,"x_max":0,"o":"m 286 967 l 286 967 l 69 967 l 69 1 l 286 1 b 754 482 526 1 754 156 b 286 967 754 805 528 967 z m 307 187 l 276 187 l 276 781 l 307 781 b 548 484 405 781 548 723 b 307 187 548 234 395 187 z "},"E":{"ha":592,"x_min":0,"x_max":0,"o":"m 551 785 l 551 967 l 69 967 l 69 0 l 551 0 l 551 182 l 276 182 l 276 403 l 492 403 l 492 584 l 276 584 l 276 785 z "},"È":{"ha":592,"x_min":0,"x_max":0,"o":"m 551 785 l 551 967 l 69 967 l 69 0 l 551 0 l 551 182 l 276 182 l 276 403 l 492 403 l 492 584 l 276 584 l 276 785 z "},"É":{"ha":592,"x_min":0,"x_max":0,"o":"m 551 785 l 551 967 l 69 967 l 69 0 l 551 0 l 551 182 l 276 182 l 276 403 l 492 403 l 492 584 l 276 584 l 276 785 z "},"Ê":{"ha":592,"x_min":0,"x_max":0,"o":"m 551 785 l 551 967 l 69 967 l 69 0 l 551 0 l 551 182 l 276 182 l 276 403 l 492 403 l 492 584 l 276 584 l 276 785 z "},"Ë":{"ha":592,"x_min":0,"x_max":0,"o":"m 551 785 l 551 967 l 69 967 l 69 0 l 551 0 l 551 182 l 276 182 l 276 403 l 492 403 l 492 584 l 276 584 l 276 785 z "},"F":{"ha":572,"x_min":0,"x_max":0,"o":"m 551 781 l 551 967 l 69 967 l 69 0 l 276 0 l 276 403 l 501 403 l 501 585 l 276 585 l 276 781 z "},"G":{"ha":815,"x_min":0,"x_max":0,"o":"m 399 585 l 399 404 l 575 404 b 412 167 575 328 565 167 b 245 479 292 167 245 310 b 405 802 245 679 295 802 b 521 700 503 802 521 700 l 728 700 b 408 988 728 796 644 988 b 39 481 216 988 39 846 b 411 -19 39 229 137 -19 b 777 406 641 -19 777 184 l 777 585 z "},"H":{"ha":756,"x_min":0,"x_max":0,"o":"m 479 967 l 479 584 l 276 584 l 276 967 l 69 967 l 69 0 l 276 0 l 276 403 l 479 403 l 479 0 l 685 0 l 685 967 z "},"I":{"ha":347,"x_min":0,"x_max":0,"o":"m 277 0 l 277 967 l 69 967 l 69 0 z "},"Ì":{"ha":347,"x_min":0,"x_max":0,"o":"m 277 0 l 277 967 l 69 967 l 69 0 z "},"Í":{"ha":347,"x_min":0,"x_max":0,"o":"m 277 0 l 277 967 l 69 967 l 69 0 z "},"Î":{"ha":347,"x_min":0,"x_max":0,"o":"m 277 0 l 277 967 l 69 967 l 69 0 z "},"Ï":{"ha":347,"x_min":0,"x_max":0,"o":"m 277 0 l 277 967 l 69 967 l 69 0 z "},"J":{"ha":624,"x_min":0,"x_max":0,"o":"m 459 967 b 412 967 444 967 428 967 l 354 967 l 354 358 b 286 161 354 185 333 161 b 218 360 223 161 218 250 l 11 360 b 289 -20 11 239 17 -20 b 561 282 532 -20 561 186 l 561 967 z "},"K":{"ha":726,"x_min":0,"x_max":0,"o":"m 684 313 b 461 547 684 504 551 547 l 673 967 l 452 967 l 276 538 l 276 967 l 69 967 l 69 0 l 276 0 l 276 391 l 383 391 b 479 294 458 391 479 366 l 479 0 l 685 0 z "},"L":{"ha":556,"x_min":0,"x_max":0,"o":"m 276 182 l 276 967 l 69 967 l 69 0 l 553 0 l 553 182 z "},"M":{"ha":894,"x_min":0,"x_max":0,"o":"m 632 967 l 447 475 l 261 967 l 69 967 l 69 0 l 276 0 l 276 537 l 429 187 l 463 187 l 617 538 l 617 0 l 824 0 l 824 967 z "},"N":{"ha":796,"x_min":0,"x_max":0,"o":"m 519 967 l 519 385 l 251 967 l 69 967 l 69 0 l 276 0 l 276 573 l 544 0 l 725 0 l 725 967 z "},"Ñ":{"ha":796,"x_min":0,"x_max":0,"o":"m 519 967 l 519 385 l 251 967 l 69 967 l 69 0 l 276 0 l 276 573 l 544 0 l 725 0 l 725 967 z "},"O":{"ha":1036,"x_min":0,"x_max":0,"o":"m 518 988 b 31 485 233 988 31 763 b 518 -19 31 206 233 -19 b 1006 485 799 -19 1006 206 b 518 988 1006 763 804 988 z m 518 182 b 242 485 356 182 242 307 b 518 787 242 662 356 787 b 794 485 681 787 794 662 b 518 182 794 307 681 182 z "},"Ò":{"ha":1036,"x_min":0,"x_max":0,"o":"m 518 988 b 31 485 233 988 31 763 b 518 -19 31 206 233 -19 b 1006 485 799 -19 1006 206 b 518 988 1006 763 804 988 z m 518 182 b 242 485 356 182 242 307 b 518 787 242 662 356 787 b 794 485 681 787 794 662 b 518 182 794 307 681 182 z "},"Ó":{"ha":1036,"x_min":0,"x_max":0,"o":"m 518 988 b 31 485 233 988 31 763 b 518 -19 31 206 233 -19 b 1006 485 799 -19 1006 206 b 518 988 1006 763 804 988 z m 518 182 b 242 485 356 182 242 307 b 518 787 242 662 356 787 b 794 485 681 787 794 662 b 518 182 794 307 681 182 z "},"Ô":{"ha":1036,"x_min":0,"x_max":0,"o":"m 518 988 b 31 485 233 988 31 763 b 518 -19 31 206 233 -19 b 1006 485 799 -19 1006 206 b 518 988 1006 763 804 988 z m 518 182 b 242 485 356 182 242 307 b 518 787 242 662 356 787 b 794 485 681 787 794 662 b 518 182 794 307 681 182 z "},"Õ":{"ha":1036,"x_min":0,"x_max":0,"o":"m 518 988 b 31 485 233 988 31 763 b 518 -19 31 206 233 -19 b 1006 485 799 -19 1006 206 b 518 988 1006 763 804 988 z m 518 182 b 242 485 356 182 242 307 b 518 787 242 662 356 787 b 794 485 681 787 794 662 b 518 182 794 307 681 182 z "},"Ö":{"ha":1036,"x_min":0,"x_max":0,"o":"m 518 988 b 31 485 233 988 31 763 b 518 -19 31 206 233 -19 b 1006 485 799 -19 1006 206 b 518 988 1006 763 804 988 z m 518 182 b 242 485 356 182 242 307 b 518 787 242 662 356 787 b 794 485 681 787 794 662 b 518 182 794 307 681 182 z "},"Ø":{"ha":1036,"x_min":0,"x_max":0,"o":"m 518 988 b 31 485 233 988 31 763 b 518 -19 31 206 233 -19 b 1006 485 799 -19 1006 206 b 518 988 1006 763 804 988 z m 518 182 b 242 485 356 182 242 307 b 518 787 242 662 356 787 b 794 485 681 787 794 662 b 518 182 794 307 681 182 z "},"P":{"ha":743,"x_min":0,"x_max":0,"o":"m 399 966 l 69 967 l 69 0 l 276 0 l 276 363 l 406 363 b 723 663 608 363 723 483 b 399 966 723 838 632 966 z m 386 549 l 276 549 l 276 780 l 389 780 b 517 662 466 780 517 737 b 386 549 517 592 478 549 z "},"Q":{"ha":1036,"x_min":0,"x_max":0,"o":"m 1006 483 b 518 987 1006 761 804 987 b 31 483 233 987 31 761 b 425 -12 31 236 190 31 l 425 -169 l 611 -169 l 611 -12 b 1006 483 843 32 1006 237 z m 518 181 b 242 483 356 181 242 306 b 518 785 242 660 356 785 b 794 483 681 785 794 660 b 518 181 794 306 681 181 z "},"R":{"ha":757,"x_min":0,"x_max":0,"o":"m 744 0 l 507 405 b 686 663 614 446 686 543 b 357 966 686 821 589 966 l 69 967 l 69 0 l 276 0 l 276 383 l 319 383 l 513 0 l 744 0 z m 276 780 l 351 780 b 479 662 419 780 479 743 b 348 549 479 604 440 549 l 276 549 z "},"S":{"ha":624,"x_min":0,"x_max":0,"o":"m 258 717 b 327 777 258 751 280 777 b 421 707 384 777 414 724 l 590 784 b 319 988 553 865 479 988 b 51 733 172 988 51 885 b 378 260 51 494 378 408 b 307 182 378 228 357 182 b 202 284 229 182 202 284 l 22 209 b 306 -19 22 209 81 -19 b 585 259 468 -19 585 97 b 258 717 585 512 258 608 z "},"T":{"ha":532,"x_min":0,"x_max":0,"o":"m 8 967 l 8 785 l 163 785 l 163 0 l 369 0 l 369 785 l 524 785 l 524 967 z "},"U":{"ha":726,"x_min":0,"x_max":0,"o":"m 459 968 l 459 298 b 363 186 459 245 436 186 b 268 298 295 186 268 239 l 268 968 l 61 968 l 61 338 l 61 323 b 363 -19 61 245 61 -19 b 665 338 665 -19 665 260 l 665 338 l 665 968 z "},"Ù":{"ha":726,"x_min":0,"x_max":0,"o":"m 459 968 l 459 298 b 363 186 459 245 436 186 b 268 298 295 186 268 239 l 268 968 l 61 968 l 61 338 l 61 323 b 363 -19 61 245 61 -19 b 665 338 665 -19 665 260 l 665 338 l 665 968 z "},"Ú":{"ha":726,"x_min":0,"x_max":0,"o":"m 459 968 l 459 298 b 363 186 459 245 436 186 b 268 298 295 186 268 239 l 268 968 l 61 968 l 61 338 l 61 323 b 363 -19 61 245 61 -19 b 665 338 665 -19 665 260 l 665 338 l 665 968 z "},"Û":{"ha":726,"x_min":0,"x_max":0,"o":"m 459 968 l 459 298 b 363 186 459 245 436 186 b 268 298 295 186 268 239 l 268 968 l 61 968 l 61 338 l 61 323 b 363 -19 61 245 61 -19 b 665 338 665 -19 665 260 l 665 338 l 665 968 z "},"Ü":{"ha":726,"x_min":0,"x_max":0,"o":"m 459 968 l 459 298 b 363 186 459 245 436 186 b 268 298 295 186 268 239 l 268 968 l 61 968 l 61 338 l 61 323 b 363 -19 61 245 61 -19 b 665 338 665 -19 665 260 l 665 338 l 665 968 z "},"V":{"ha":669,"x_min":0,"x_max":0,"o":"m 437 967 l 334 325 l 231 967 l 10 967 l 226 0 l 442 0 l 659 967 z "},"W":{"ha":1058,"x_min":0,"x_max":0,"o":"m 838 967 l 723 349 l 612 967 l 445 967 l 443 956 l 334 349 l 219 967 l 12 967 l 209 0 l 415 0 l 529 557 l 642 0 l 848 0 l 1045 967 z "},"X":{"ha":685,"x_min":0,"x_max":0,"o":"m 668 967 l 457 967 l 342 649 l 227 967 l 15 967 l 214 477 l 16 0 l 228 0 l 342 304 l 456 0 l 667 0 l 470 477 z "},"Y":{"ha":633,"x_min":0,"x_max":0,"o":"m 431 967 l 316 595 l 201 967 l -6 967 l 213 417 l 213 0 l 419 0 l 419 417 l 638 967 z "},"Ý":{"ha":633,"x_min":0,"x_max":0,"o":"m 431 967 l 316 595 l 201 967 l -6 967 l 213 417 l 213 0 l 419 0 l 419 417 l 638 967 z "},"Ÿ":{"ha":633,"x_min":0,"x_max":0,"o":"m 431 967 l 316 595 l 201 967 l -6 967 l 213 417 l 213 0 l 419 0 l 419 417 l 638 967 z "},"Z":{"ha":653,"x_min":0,"x_max":0,"o":"m 644 967 l 72 967 l 72 785 l 72 785 b 72 780 72 785 72 780 l 354 781 l 10 0 l 589 0 l 589 186 l 299 186 z "},"[":{"ha":435,"x_min":0,"x_max":0,"o":"m 365 1083 l 365 1199 l 69 1199 l 69 -87 l 365 -87 l 365 31 l 224 31 l 224 1083 z "},"\\":{"ha":821,"x_min":0,"x_max":0,"o":"m 224 1199 l 69 1199 l 598 -87 l 751 -87 z "},"]":{"ha":435,"x_min":0,"x_max":0,"o":"m 69 1199 l 69 1082 l 210 1082 l 210 30 l 69 30 l 69 -87 l 365 -87 l 365 1199 z "},"^":{"ha":683,"x_min":0,"x_max":0,"o":"m 458 993 l 225 993 l 22 507 l 227 507 l 342 822 l 456 507 l 661 507 z "},"_":{"ha":763,"x_min":0,"x_max":0,"o":"m 734 -1 l 734 163 l 28 163 l 28 -1 z "},"a":{"ha":704,"x_min":0,"x_max":0,"o":"m 466 554 l 466 462 b 289 575 466 462 417 575 b 35 278 124 575 35 420 b 287 -19 35 160 100 -19 b 466 106 423 -19 466 106 l 466 1 l 645 1 l 645 554 z m 347 160 b 228 278 277 160 228 213 b 347 396 228 343 279 396 b 462 278 419 396 462 331 b 347 160 462 221 421 160 z "},"à":{"ha":704,"x_min":0,"x_max":0,"o":"m 466 554 l 466 462 b 289 575 466 462 417 575 b 35 278 124 575 35 420 b 287 -19 35 160 100 -19 b 466 106 423 -19 466 106 l 466 1 l 645 1 l 645 554 z m 347 160 b 228 278 277 160 228 213 b 347 396 228 343 279 396 b 462 278 419 396 462 331 b 347 160 462 221 421 160 z "},"á":{"ha":704,"x_min":0,"x_max":0,"o":"m 466 554 l 466 462 b 289 575 466 462 417 575 b 35 278 124 575 35 420 b 287 -19 35 160 100 -19 b 466 106 423 -19 466 106 l 466 1 l 645 1 l 645 554 z m 347 160 b 228 278 277 160 228 213 b 347 396 228 343 279 396 b 462 278 419 396 462 331 b 347 160 462 221 421 160 z "},"â":{"ha":704,"x_min":0,"x_max":0,"o":"m 466 554 l 466 462 b 289 575 466 462 417 575 b 35 278 124 575 35 420 b 287 -19 35 160 100 -19 b 466 106 423 -19 466 106 l 466 1 l 645 1 l 645 554 z m 347 160 b 228 278 277 160 228 213 b 347 396 228 343 279 396 b 462 278 419 396 462 331 b 347 160 462 221 421 160 z "},"ã":{"ha":704,"x_min":0,"x_max":0,"o":"m 466 554 l 466 462 b 289 575 466 462 417 575 b 35 278 124 575 35 420 b 287 -19 35 160 100 -19 b 466 106 423 -19 466 106 l 466 1 l 645 1 l 645 554 z m 347 160 b 228 278 277 160 228 213 b 347 396 228 343 279 396 b 462 278 419 396 462 331 b 347 160 462 221 421 160 z "},"ä":{"ha":704,"x_min":0,"x_max":0,"o":"m 466 554 l 466 462 b 289 575 466 462 417 575 b 35 278 124 575 35 420 b 287 -19 35 160 100 -19 b 466 106 423 -19 466 106 l 466 1 l 645 1 l 645 554 z m 347 160 b 228 278 277 160 228 213 b 347 396 228 343 279 396 b 462 278 419 396 462 331 b 347 160 462 221 421 160 z "},"å":{"ha":704,"x_min":0,"x_max":0,"o":"m 466 554 l 466 462 b 289 575 466 462 417 575 b 35 278 124 575 35 420 b 287 -19 35 160 100 -19 b 466 106 423 -19 466 106 l 466 1 l 645 1 l 645 554 z m 347 160 b 228 278 277 160 228 213 b 347 396 228 343 279 396 b 462 278 419 396 462 331 b 347 160 462 221 421 160 z "},"b":{"ha":729,"x_min":0,"x_max":0,"o":"m 439 575 b 252 463 314 575 254 468 l 252 968 l 58 968 l 58 1 l 237 1 l 237 107 b 431 -19 237 107 292 -19 b 693 278 618 -19 693 159 b 439 575 693 429 604 575 z m 381 159 b 257 278 307 159 257 214 b 381 396 257 336 309 396 b 500 278 449 396 500 343 b 381 159 500 213 451 159 z "},"c":{"ha":544,"x_min":0,"x_max":0,"o":"m 349 396 b 490 331 444 396 490 331 l 490 536 b 335 575 490 536 415 575 b 33 278 160 575 33 445 b 335 -19 33 117 146 -19 b 490 18 421 -19 490 18 l 490 229 b 349 160 490 229 449 160 b 227 278 296 160 227 198 b 349 396 227 363 299 396 z "},"ç":{"ha":544,"x_min":0,"x_max":0,"o":"m 349 396 b 490 331 444 396 490 331 l 490 536 b 335 575 490 536 415 575 b 33 278 160 575 33 445 b 335 -19 33 117 146 -19 b 490 18 421 -19 490 18 l 490 229 b 349 160 490 229 449 160 b 227 278 296 160 227 198 b 349 396 227 363 299 396 z "},"d":{"ha":729,"x_min":0,"x_max":0,"o":"m 476 968 l 476 463 b 289 575 474 468 414 575 b 35 278 124 575 35 429 b 297 -19 35 159 110 -19 b 491 107 436 -19 491 107 l 491 1 l 670 1 l 670 968 z m 347 159 b 228 278 277 159 228 213 b 347 396 228 343 279 396 b 471 278 419 396 471 336 b 347 159 471 214 421 159 z "},"e":{"ha":685,"x_min":0,"x_max":0,"o":"m 341 575 b 33 278 144 575 33 427 b 343 -19 33 133 135 -19 b 638 191 581 -19 638 191 l 449 191 b 347 133 449 191 428 133 b 221 250 272 133 221 193 l 653 249 b 341 575 653 434 535 575 z m 342 431 b 458 342 434 431 458 342 l 227 342 b 342 431 227 342 247 431 z "},"è":{"ha":685,"x_min":0,"x_max":0,"o":"m 341 575 b 33 278 144 575 33 427 b 343 -19 33 133 135 -19 b 638 191 581 -19 638 191 l 449 191 b 347 133 449 191 428 133 b 221 250 272 133 221 193 l 653 249 b 341 575 653 434 535 575 z m 342 431 b 458 342 434 431 458 342 l 227 342 b 342 431 227 342 247 431 z "},"é":{"ha":685,"x_min":0,"x_max":0,"o":"m 341 575 b 33 278 144 575 33 427 b 343 -19 33 133 135 -19 b 638 191 581 -19 638 191 l 449 191 b 347 133 449 191 428 133 b 221 250 272 133 221 193 l 653 249 b 341 575 653 434 535 575 z m 342 431 b 458 342 434 431 458 342 l 227 342 b 342 431 227 342 247 431 z "},"ê":{"ha":685,"x_min":0,"x_max":0,"o":"m 341 575 b 33 278 144 575 33 427 b 343 -19 33 133 135 -19 b 638 191 581 -19 638 191 l 449 191 b 347 133 449 191 428 133 b 221 250 272 133 221 193 l 653 249 b 341 575 653 434 535 575 z m 342 431 b 458 342 434 431 458 342 l 227 342 b 342 431 227 342 247 431 z "},"ë":{"ha":685,"x_min":0,"x_max":0,"o":"m 341 575 b 33 278 144 575 33 427 b 343 -19 33 133 135 -19 b 638 191 581 -19 638 191 l 449 191 b 347 133 449 191 428 133 b 221 250 272 133 221 193 l 653 249 b 341 575 653 434 535 575 z m 342 431 b 458 342 434 431 458 342 l 227 342 b 342 431 227 342 247 431 z "},"f":{"ha":390,"x_min":0,"x_max":0,"o":"m 317 828 b 392 799 350 828 369 812 l 392 963 b 274 987 355 980 302 987 b 58 724 140 987 58 894 l 58 0 l 252 0 l 252 413 l 373 413 l 373 554 l 252 554 l 252 738 b 317 828 252 782 269 828 z "},"g":{"ha":717,"x_min":0,"x_max":0,"o":"m 466 549 l 466 458 b 289 569 466 458 417 569 b 35 272 114 569 35 414 b 292 -25 35 164 101 -25 b 476 89 428 -25 476 89 b 476 71 476 89 476 71 b 212 -123 476 -151 306 -160 l 206 -311 b 658 102 498 -351 658 -186 l 658 549 z m 347 154 b 228 272 277 154 228 202 b 347 390 228 342 282 390 b 466 272 427 390 466 326 b 347 154 466 215 425 154 z "},"h":{"ha":668,"x_min":0,"x_max":0,"o":"m 414 574 b 252 448 293 574 252 448 l 252 967 l 237 967 l 237 967 l 58 967 l 58 0 l 252 0 l 252 287 b 336 401 252 357 277 401 b 421 287 396 401 421 357 l 421 0 l 614 0 l 614 344 b 414 574 614 487 542 574 z "},"i":{"ha":311,"x_min":0,"x_max":0,"o":"m 155 647 b 266 768 217 647 266 701 b 155 889 266 835 217 889 b 44 768 94 889 44 835 b 155 647 44 701 94 647 z m 252 -1 l 252 553 l 59 553 l 59 -1 z "},"ì":{"ha":311,"x_min":0,"x_max":0,"o":"m 155 647 b 266 768 217 647 266 701 b 155 889 266 835 217 889 b 44 768 94 889 44 835 b 155 647 44 701 94 647 z m 252 -1 l 252 553 l 59 553 l 59 -1 z "},"í":{"ha":311,"x_min":0,"x_max":0,"o":"m 155 647 b 266 768 217 647 266 701 b 155 889 266 835 217 889 b 44 768 94 889 44 835 b 155 647 44 701 94 647 z m 252 -1 l 252 553 l 59 553 l 59 -1 z "},"î":{"ha":311,"x_min":0,"x_max":0,"o":"m 155 647 b 266 768 217 647 266 701 b 155 889 266 835 217 889 b 44 768 94 889 44 835 b 155 647 44 701 94 647 z m 252 -1 l 252 553 l 59 553 l 59 -1 z "},"ï":{"ha":311,"x_min":0,"x_max":0,"o":"m 155 647 b 266 768 217 647 266 701 b 155 889 266 835 217 889 b 44 768 94 889 44 835 b 155 647 44 701 94 647 z m 252 -1 l 252 553 l 59 553 l 59 -1 z "},"j":{"ha":310,"x_min":0,"x_max":0,"o":"m 58 -51 b -6 -159 58 -115 49 -159 b -86 -132 -44 -159 -76 -139 l -86 -282 b 60 -315 -51 -300 7 -315 b 251 -75 178 -315 251 -241 l 251 549 l 58 549 z m 155 643 b 266 764 216 643 266 697 b 155 886 266 831 216 886 b 44 764 94 886 44 831 b 155 643 44 697 94 643 z "},"k":{"ha":656,"x_min":0,"x_max":0,"o":"m 420 329 l 606 553 l 391 553 l 252 375 l 252 967 l 58 967 l 58 0 l 252 0 l 252 267 l 424 0 l 648 0 z "},"l":{"ha":311,"x_min":0,"x_max":0,"o":"m 252 0 l 252 967 l 58 967 l 58 0 z "},"m":{"ha":1010,"x_min":0,"x_max":0,"o":"m 756 574 b 579 455 627 574 579 455 b 403 574 579 455 544 574 b 237 447 277 574 237 447 l 237 553 l 58 553 l 58 0 l 252 0 l 252 287 b 331 400 252 357 272 400 b 411 287 391 400 411 357 l 411 0 l 604 0 l 604 287 b 684 400 604 357 624 400 b 763 287 744 400 763 357 l 763 0 l 957 0 l 957 339 b 756 574 957 455 911 574 z "},"n":{"ha":668,"x_min":0,"x_max":0,"o":"m 414 574 b 237 447 281 574 237 447 l 237 553 l 58 553 l 58 0 l 252 0 l 252 287 b 336 400 252 357 276 400 b 421 287 396 400 421 357 l 421 0 l 614 0 l 614 344 b 414 574 614 487 546 574 z "},"ñ":{"ha":668,"x_min":0,"x_max":0,"o":"m 414 574 b 237 447 281 574 237 447 l 237 553 l 58 553 l 58 0 l 252 0 l 252 287 b 336 400 252 357 276 400 b 421 287 396 400 421 357 l 421 0 l 614 0 l 614 344 b 414 574 614 487 546 574 z "},"o":{"ha":688,"x_min":0,"x_max":0,"o":"m 343 575 b 33 279 168 575 33 450 b 342 -20 33 106 168 -20 b 654 278 519 -20 654 106 b 343 575 654 450 519 575 z m 344 153 b 227 279 274 153 227 209 b 344 402 227 346 274 402 b 461 278 413 402 461 346 b 344 153 461 209 413 153 z "},"ò":{"ha":688,"x_min":0,"x_max":0,"o":"m 343 575 b 33 279 168 575 33 450 b 342 -20 33 106 168 -20 b 654 278 519 -20 654 106 b 343 575 654 450 519 575 z m 344 153 b 227 279 274 153 227 209 b 344 402 227 346 274 402 b 461 278 413 402 461 346 b 344 153 461 209 413 153 z "},"ó":{"ha":688,"x_min":0,"x_max":0,"o":"m 343 575 b 33 279 168 575 33 450 b 342 -20 33 106 168 -20 b 654 278 519 -20 654 106 b 343 575 654 450 519 575 z m 344 153 b 227 279 274 153 227 209 b 344 402 227 346 274 402 b 461 278 413 402 461 346 b 344 153 461 209 413 153 z "},"ô":{"ha":688,"x_min":0,"x_max":0,"o":"m 343 575 b 33 279 168 575 33 450 b 342 -20 33 106 168 -20 b 654 278 519 -20 654 106 b 343 575 654 450 519 575 z m 344 153 b 227 279 274 153 227 209 b 344 402 227 346 274 402 b 461 278 413 402 461 346 b 344 153 461 209 413 153 z "},"õ":{"ha":688,"x_min":0,"x_max":0,"o":"m 343 575 b 33 279 168 575 33 450 b 342 -20 33 106 168 -20 b 654 278 519 -20 654 106 b 343 575 654 450 519 575 z m 344 153 b 227 279 274 153 227 209 b 344 402 227 346 274 402 b 461 278 413 402 461 346 b 344 153 461 209 413 153 z "},"ö":{"ha":688,"x_min":0,"x_max":0,"o":"m 343 575 b 33 279 168 575 33 450 b 342 -20 33 106 168 -20 b 654 278 519 -20 654 106 b 343 575 654 450 519 575 z m 344 153 b 227 279 274 153 227 209 b 344 402 227 346 274 402 b 461 278 413 402 461 346 b 344 153 461 209 413 153 z "},"ø":{"ha":688,"x_min":0,"x_max":0,"o":"m 343 575 b 33 279 168 575 33 450 b 342 -20 33 106 168 -20 b 654 278 519 -20 654 106 b 343 575 654 450 519 575 z m 344 153 b 227 279 274 153 227 209 b 344 402 227 346 274 402 b 461 278 413 402 461 346 b 344 153 461 209 413 153 z "},"p":{"ha":729,"x_min":0,"x_max":0,"o":"m 431 573 b 237 447 292 573 237 447 l 237 552 l 58 552 l 58 -297 l 252 -297 l 252 91 b 429 -21 252 77 304 -21 b 693 276 594 -21 693 125 b 431 573 693 409 608 573 z m 381 158 b 257 276 309 158 257 217 b 381 394 257 339 307 394 b 500 276 451 394 500 341 b 381 158 500 211 449 158 z "},"q":{"ha":729,"x_min":0,"x_max":0,"o":"m 491 447 b 297 573 491 447 436 573 b 35 276 120 573 35 409 b 299 -21 35 125 134 -21 b 476 91 424 -21 476 77 l 476 -297 l 670 -297 l 670 553 l 491 553 z m 347 158 b 228 276 279 158 228 211 b 347 394 228 341 277 394 b 471 276 421 394 471 339 b 347 158 471 217 419 158 z "},"r":{"ha":474,"x_min":0,"x_max":0,"o":"m 444 553 b 391 553 444 553 403 553 b 251 486 303 553 261 509 l 218 553 l 58 553 l 58 0 l 251 0 l 251 314 b 425 306 251 435 326 433 l 444 306 z "},"s":{"ha":579,"x_min":0,"x_max":0,"o":"m 236 399 b 282 434 236 426 265 434 b 335 385 304 434 335 420 l 528 385 b 285 575 528 475 449 575 b 42 395 155 575 42 502 b 349 160 42 204 349 236 b 296 121 349 133 322 121 b 230 168 249 121 230 159 l 36 168 b 295 -19 36 99 98 -19 b 543 160 489 -19 543 85 b 236 399 543 353 236 322 z "},"t":{"ha":438,"x_min":0,"x_max":0,"o":"m 420 553 l 303 553 l 303 738 l 114 691 l 114 553 l 21 553 l 21 413 l 109 413 l 109 0 l 303 0 l 303 413 l 420 413 z "},"u":{"ha":667,"x_min":0,"x_max":0,"o":"m 415 554 l 414 263 b 327 154 414 185 373 154 b 243 264 273 154 243 188 l 245 554 l 51 554 l 51 204 b 263 -19 51 78 123 -19 b 429 107 395 -19 429 107 l 429 1 l 608 1 l 608 554 z "},"ù":{"ha":667,"x_min":0,"x_max":0,"o":"m 415 554 l 414 263 b 327 154 414 185 373 154 b 243 264 273 154 243 188 l 245 554 l 51 554 l 51 204 b 263 -19 51 78 123 -19 b 429 107 395 -19 429 107 l 429 1 l 608 1 l 608 554 z "},"ú":{"ha":667,"x_min":0,"x_max":0,"o":"m 415 554 l 414 263 b 327 154 414 185 373 154 b 243 264 273 154 243 188 l 245 554 l 51 554 l 51 204 b 263 -19 51 78 123 -19 b 429 107 395 -19 429 107 l 429 1 l 608 1 l 608 554 z "},"û":{"ha":667,"x_min":0,"x_max":0,"o":"m 415 554 l 414 263 b 327 154 414 185 373 154 b 243 264 273 154 243 188 l 245 554 l 51 554 l 51 204 b 263 -19 51 78 123 -19 b 429 107 395 -19 429 107 l 429 1 l 608 1 l 608 554 z "},"ü":{"ha":667,"x_min":0,"x_max":0,"o":"m 415 554 l 414 263 b 327 154 414 185 373 154 b 243 264 273 154 243 188 l 245 554 l 51 554 l 51 204 b 263 -19 51 78 123 -19 b 429 107 395 -19 429 107 l 429 1 l 608 1 l 608 554 z "},"v":{"ha":604,"x_min":0,"x_max":0,"o":"m 391 554 l 302 222 l 213 554 l 10 554 l 223 0 l 380 0 l 594 554 z "},"w":{"ha":854,"x_min":0,"x_max":0,"o":"m 648 554 l 569 217 l 490 554 l 364 554 l 285 217 l 206 554 l 13 554 l 187 0 l 359 0 l 427 259 l 495 0 l 667 0 l 841 554 z "},"x":{"ha":635,"x_min":0,"x_max":0,"o":"m 434 286 l 613 554 l 405 554 l 317 401 l 230 554 l 22 554 l 206 286 l 10 0 l 218 0 l 317 171 l 417 0 l 625 0 z "},"y":{"ha":644,"x_min":0,"x_max":0,"o":"m 437 547 l 323 280 l 206 547 l 7 547 l 230 93 l 24 -312 l 229 -312 l 636 547 z "},"ý":{"ha":644,"x_min":0,"x_max":0,"o":"m 437 547 l 323 280 l 206 547 l 7 547 l 230 93 l 24 -312 l 229 -312 l 636 547 z "},"ÿ":{"ha":644,"x_min":0,"x_max":0,"o":"m 437 547 l 323 280 l 206 547 l 7 547 l 230 93 l 24 -312 l 229 -312 l 636 547 z "},"z":{"ha":574,"x_min":0,"x_max":0,"o":"m 294 164 l 552 554 l 71 554 l 71 390 l 269 390 l 15 0 l 531 0 l 531 164 z "},"|":{"ha":283,"x_min":0,"x_max":0,"o":"m 218 549 b 218 551 218 549 218 550 l 218 568 b 217 574 217 570 217 572 b 218 574 217 574 217 574 l 218 807 b 188 851 218 831 204 851 b 159 851 171 851 160 851 b 97 851 131 852 124 851 b 86 851 93 851 90 851 b 71 841 79 849 75 846 b 66 818 67 839 65 832 b 66 748 66 817 66 790 b 65 627 65 723 65 671 b 66 -49 65 411 65 -32 b 81 -73 66 -63 71 -71 b 190 -71 85 -74 184 -71 b 215 -37 206 -71 214 -59 b 218 549 215 -15 220 438 z "}," ":{"ha":401,"x_min":0,"x_max":0,"o":""},"­":{"ha":0,"x_min":0,"x_max":0,"o":""},"—":{"ha":1014,"x_min":0,"x_max":0,"o":"m 986 249 l 986 413 l 28 413 l 28 249 z "},"“":{"ha":547,"x_min":0,"x_max":0,"o":"m 78 639 l 193 639 l 242 998 l 29 998 z m 305 998 l 354 639 l 468 639 l 518 998 z "},"”":{"ha":547,"x_min":0,"x_max":0,"o":"m 78 639 l 193 639 l 242 998 l 29 998 z m 305 998 l 354 639 l 468 639 l 518 998 z "},"•":{"ha":253,"x_min":0,"x_max":0,"o":"m 222 367 l 222 563 l 31 563 l 31 367 z "},"":{"ha":288,"x_min":0,"x_max":0,"o":"m 236 193 l 104 193 b 82 137 80 193 82 153 b -125 -28 82 -38 -61 -28 b -133 -29 -128 -28 -130 -29 b -2339 -26 -235 -29 -2253 -26 b -2379 -48 -2361 -26 -2379 -36 l -2379 -168 b -2353 -190 -2379 -180 -2374 -190 b -208 -188 -2278 -191 -282 -187 b -106 -189 -180 -189 -134 -189 b 258 153 120 -189 258 -109 b 236 193 258 175 248 193 z "},"":{"ha":639,"x_min":0,"x_max":0,"o":"m 182 382 b 107 457 182 423 148 457 b 32 382 66 457 32 423 b 107 307 32 341 66 307 b 182 382 148 307 182 341 z m 531 457 b 455 382 489 457 455 423 b 531 307 455 341 489 307 b 606 382 572 307 606 341 b 531 457 606 423 572 457 z m 319 59 b 146 231 224 59 146 136 l 68 231 b 319 -20 68 93 180 -20 b 570 231 457 -20 570 93 l 491 231 b 319 59 491 136 414 59 z "},"":{"ha":1097,"x_min":0,"x_max":0,"o":"m 548 989 b 44 485 271 989 44 763 b 548 -19 44 207 271 -19 b 1053 485 826 -19 1053 207 b 548 989 1053 763 826 989 z m 548 59 b 123 485 314 59 123 250 b 548 910 123 719 314 910 b 974 485 783 910 974 719 b 548 59 974 250 783 59 z m 337 513 b 412 588 378 513 412 546 b 337 663 412 629 378 663 b 262 588 295 663 262 629 b 337 513 262 546 295 513 z m 760 513 b 835 588 802 513 835 546 b 760 663 835 629 802 663 b 685 588 719 663 685 629 b 760 513 685 546 719 513 z m 548 265 b 376 437 453 265 376 342 l 297 437 b 548 186 297 298 410 186 b 800 437 687 186 800 298 l 721 437 b 548 265 721 342 643 265 z "},"":{"ha":649,"x_min":0,"x_max":0,"o":"m 141 374 b 141 402 133 382 133 394 l 374 635 b 374 662 381 642 381 655 l 345 690 b 318 690 338 698 325 698 l 29 402 b 29 374 22 394 22 382 l 318 86 b 345 86 325 78 338 78 l 374 114 b 374 142 381 122 381 134 z m 376 374 b 376 402 368 382 368 394 l 608 635 b 608 662 616 642 616 655 l 580 690 b 553 690 573 698 560 698 l 264 402 b 264 374 257 394 257 382 l 553 86 b 580 86 560 78 573 78 l 608 114 b 608 142 616 122 616 134 z "},"":{"ha":649,"x_min":0,"x_max":0,"o":"m 618 402 l 330 690 b 302 690 322 698 310 698 l 274 662 b 274 635 266 655 266 642 l 507 402 b 507 374 514 394 514 382 l 274 142 b 274 114 266 134 266 122 l 302 86 b 330 86 310 78 322 78 l 618 374 b 618 402 626 382 626 394 z m 383 402 l 95 690 b 67 690 87 698 75 698 l 39 662 b 39 635 31 655 31 642 l 272 402 b 272 374 279 394 279 382 l 39 142 b 39 114 31 134 31 122 l 67 86 b 95 86 75 78 87 78 l 383 374 b 383 402 391 382 391 394 z "},"":{"ha":349,"x_min":0,"x_max":0,"o":"m 130 507 b 385 1048 130 717 223 914 l 335 1109 b 51 507 155 960 51 741 b 347 -104 51 267 159 45 l 396 -42 b 130 507 227 91 130 292 z "},"":{"ha":343,"x_min":0,"x_max":0,"o":"m -5 1109 l -54 1047 b 212 498 115 913 212 713 b -44 -43 212 288 119 91 l 7 -104 b 290 498 187 45 290 264 b -5 1109 290 737 183 960 z "},"":{"ha":624,"x_min":0,"x_max":0,"o":"m 588 418 l 383 418 l 528 563 l 486 605 l 341 460 l 341 665 l 282 665 l 282 460 l 137 605 l 95 563 l 240 418 l 35 418 l 35 359 l 240 359 l 95 213 l 137 172 l 282 317 l 282 111 l 341 111 l 341 317 l 486 172 l 528 213 l 383 359 l 588 359 z "},"":{"ha":865,"x_min":0,"x_max":0,"o":"m 834 612 l 540 612 l 540 389 b 383 167 540 238 501 167 b 244 298 293 167 244 231 b 372 441 244 396 307 441 l 439 441 l 439 612 l 419 612 b 301 719 361 612 301 651 b 375 802 301 757 326 802 b 457 725 415 802 457 773 l 644 725 b 378 988 644 865 544 988 b 105 734 220 988 105 883 b 242 530 105 575 242 530 b 47 274 242 530 47 493 b 384 -19 47 105 159 -19 b 736 379 587 -19 736 104 l 736 435 l 834 435 z "},"":{"ha":339,"x_min":0,"x_max":0,"o":"m 273 0 l 273 784 l 65 784 l 65 0 z m 273 838 l 273 967 l 65 967 l 65 838 z "},"":{"ha":1011,"x_min":0,"x_max":0,"o":"m 518 181 b 242 483 356 181 242 306 b 518 785 242 660 356 785 b 764 627 631 785 721 724 l 987 627 b 518 987 930 835 752 987 b 31 483 233 987 31 761 b 518 -21 31 205 233 -21 b 986 339 748 -21 929 131 l 764 339 b 518 181 721 242 631 181 z "},"":{"ha":1022,"x_min":0,"x_max":0,"o":"m 469 521 l 469 339 l 764 339 b 518 181 721 242 631 181 b 242 483 356 181 242 306 b 513 785 242 660 351 785 b 755 627 627 785 713 732 l 977 627 b 513 987 936 830 747 987 b 31 483 228 987 31 761 b 518 -21 31 205 233 -21 b 986 339 748 -21 929 131 l 986 521 z "},"":{"ha":765,"x_min":0,"x_max":0,"o":"m 492 425 b 686 677 626 463 686 576 b 381 966 686 853 570 966 l 69 966 l 69 0 l 276 0 l 276 412 l 508 0 l 754 0 z m 348 549 l 276 549 l 276 780 l 351 780 b 479 662 419 780 479 742 b 348 549 479 604 440 549 z "}}}
